<svg width="28" height="28" viewBox="0 0 28 28" fill="none" xmlns="http://www.w3.org/2000/svg">
<path d="M22.1667 12.8333H10.5L14.3383 8.995C14.4477 8.88654 14.5345 8.75751 14.5937 8.61534C14.6529 8.47317 14.6834 8.32068 14.6834 8.16667C14.6834 8.01265 14.6529 7.86016 14.5937 7.718C14.5345 7.57583 14.4477 7.44679 14.3383 7.33833C14.1197 7.12104 13.8241 6.99908 13.5158 6.99908C13.2076 6.99908 12.9119 7.12104 12.6933 7.33833L7.68833 12.355C7.25015 12.7906 7.0026 13.3822 7 14C7.00568 14.6138 7.25299 15.2006 7.68833 15.6333L12.6933 20.65C12.8021 20.758 12.9311 20.8435 13.0729 20.9017C13.2148 20.9599 13.3667 20.9895 13.52 20.989C13.6733 20.9884 13.8249 20.9577 13.9664 20.8985C14.1078 20.8394 14.2362 20.7529 14.3442 20.6442C14.4522 20.5354 14.5377 20.4064 14.5959 20.2646C14.654 20.1227 14.6837 19.9708 14.6831 19.8175C14.6826 19.6642 14.6519 19.5126 14.5927 19.3711C14.5336 19.2297 14.4471 19.1013 14.3383 18.9933L10.5 15.1667H22.1667C22.4761 15.1667 22.7728 15.0438 22.9916 14.825C23.2104 14.6062 23.3333 14.3094 23.3333 14C23.3333 13.6906 23.2104 13.3938 22.9916 13.175C22.7728 12.9563 22.4761 12.8333 22.1667 12.8333Z" fill="black"/>
</svg>
